<svg xmlns="http://www.w3.org/2000/svg" viewBox="0 0 60 60">
<path fill="#fff" d="M.723.273h49.882v59.569H.723z"></path>
<path fill="#ee2e24" d="M1.45 1.002h48.428V49.43H1.45z"></path>
<path fill="#fff" d="M40.092 36.462c2.333-3.044 3.731-6.913 3.731-11.247 0-10.314-7.845-18.163-18.16-18.163-10.314 0-18.162 7.849-18.162 18.163 0 10.313 7.848 18.16 18.162 18.16 3.648 0 6.994-.987 9.793-2.716L24.097 26.013v9.216h-6.392V15.203h6.392v9.218l6.583-9.218h7.299l-7.107 9.629 9.22 11.63z"></path>
<path fill="#f99b2a" d="M1.45 51.851h48.428v7.264H1.45z"></path>
<path fill="#ee2e24" d="M57.366 55.916a3 3 0 1 1-6 0 3 3 0 0 1 6 0z"></path>
<path fill="#fff" d="M56.866 55.916a2.5 2.5 0 1 1-5 0 2.5 2.5 0 0 1 5 0z"></path>
<path fill="#ee2e24" d="M53.058 55.96v-1.613l.71.002c.708.003.76.005.94.027.271.034.434.104.58.252a.816.816 0 0 1 .17.24c.06.13.082.223.081.358 0 .229-.081.432-.242.602-.166.176-.353.264-.636.3l-.037.004.072.036c.126.063.18.107.305.251.118.138.234.304.426.613a2739.74 2739.74 0 0 1 .327.523l.011.018h-.636l-.043-.077a132.452 132.452 0 0 0-.12-.214 7.82 7.82 0 0 0-.354-.6c-.149-.224-.273-.356-.389-.414-.1-.05-.195-.064-.455-.064h-.192V57.573h-.518V55.96z"></path>
<path fill="#fff" d="M54.464 55.747a.882.882 0 0 0 .293-.077.313.313 0 0 0 .097-.073.419.419 0 0 0 .133-.307.431.431 0 0 0-.242-.42.67.67 0 0 0-.24-.069 5.324 5.324 0 0 0-.502-.012l-.427-.003v.977l.408-.003a5.24 5.24 0 0 0 .48-.013z"></path>
</svg>
