
<!-- Costco icon normalized to a 64x64 square -->
<svg xmlns="http://www.w3.org/2000/svg"
     viewBox="0 0 95 95" height="955">
  <!-- Pre‑scaled and centered Costco logo -->
  <g transform="translate(0, 10) scale(0.25)">
    <path d="M618.05,345.24c-8.25-10-22.79-15.72-39.91-15.72-18.08,0-34.4,6.1-45.68,16.07,1-6.23,1.83-11.46,1.83-11.46l-4.9-1.45a78.65,78.65,0,0,0-22.24-3.16,65.55,65.55,0,0,0-35.76,10.66l2.9-9.54H395.93l-.92,3a61.6,61.6,0,0,0-23.27-4.17c-16.12,0-33.59,6.23-42.67,18.28-.59-.87-1.22-1.73-1.9-2.56-8.25-10-22.8-15.72-39.91-15.72-17.56,0-33.46,5.77-44.69,15.23,1.94-11.78,4.37-26.57,4.37-26.57l-5-1.44A99.82,99.82,0,0,0,214.65,313c-34.35,0-65.61,21.83-71.17,49.7A38.23,38.23,0,0,0,151.25,395c6.29,7.67,15.59,13.14,26.62,15.94h-34v43.52H317.21s.19-.39.27-.53v.53h20.87l2.83-4.61-.88,4.61h47.18l.68-3.61c4.15,2.68,9.54,4.12,15.73,4.12a36.09,36.09,0,0,0,15.16-3.19l-.51,2.67h66.15l.11-.57a43.25,43.25,0,0,0,9.37,1.08,33,33,0,0,0,5.72-.51h25.16l1.87-4h1.68c.18,1.35.51,4,.51,4h77.78l3.87-20.36h-1.41c.26-1.39.36-1.89.53-2.8h1L614.75,411h-2.09a10.86,10.86,0,0,0,3.41-6,9.32,9.32,0,0,0-2-7.7,10,10,0,0,0-1.52-1.46,44.5,44.5,0,0,0,12.08-22.64C626.74,362.65,624.44,353,618.05,345.24Zm-44.4,19.25c3.19,0,5.65.85,6.93,2.39a5.4,5.4,0,0,1,.88,4.5c-1,5.25-6.41,8.92-13.12,8.92-3.27,0-5.85-.87-7.09-2.37a5,5,0,0,1-.76-4.33C561.37,369.07,566.17,364.49,573.65,364.49ZM517.4,371c-.24,1.26-.42,2.51-.54,3.74-5.25,3.51-10.17,5.17-15.42,5.17-3.56,0-6.64-1.16-8.25-3.11a4.32,4.32,0,0,1-.94-3.78c.94-4.85,7.51-9.1,14.08-9.1a18.66,18.66,0,0,1,11.72,4.38c-.25.89-.47,1.79-.65,2.7Zm5.32,40-2.56,4.21L518.05,414a26,26,0,0,0-4.38-1.93,28.57,28.57,0,0,0,3-.9l3-1.08s1.35-5.94,2.92-12.81q.58.81,1.23,1.59c4.42,5.37,10.8,9.47,18.51,12.11H522.72Zm26,1.77-1,5.36-1.41-6c.74.22,1.56.42,2.38.6ZM402.87,365c-.87,2.87-2.29,7.52-3.89,12.82a18.78,18.78,0,0,0-3.19-9.3,19.15,19.15,0,0,0-2.7-3.15Zm-112.32,6.4c-1,5.25-6.41,8.92-13.12,8.92-3.26,0-5.84-.87-7.08-2.37a4.28,4.28,0,0,1-.91-2.82,8.21,8.21,0,0,1,.15-1.51c.88-4.53,5.68-9.11,13.16-9.11,3.19,0,5.65.85,6.93,2.39A5.36,5.36,0,0,1,290.55,371.38Zm102.87,24.75c-1.93,6.35-3.61,11.89-4.51,14.84H371.55C380.39,408,388.35,403.14,393.42,396.13Zm-166.1-28.49c-6.69,4.28-13,6.28-19.79,6.28-5,0-9.3-1.64-11.54-4.38a6.12,6.12,0,0,1-1.34-5.36c1.3-6.52,10-12,19-12,6.06,0,11.68,2.26,17.16,6.9a42.84,42.84,0,0,0-3.49,8.56Zm82.93,37.17,5.64,2.54A73.49,73.49,0,0,0,326.05,411H315.6l-1.13,2.26c-.07-1.1-.14-2.26-.14-2.26H296.15A65.8,65.8,0,0,0,310.25,404.81Zm138.19,27.81c1.22-6.4,4.11-21.63,4.11-21.63h-20c2.64-8.69,12.13-40,14-46.12l4.2.16a41.13,41.13,0,0,0-1.82,6.47,33.2,33.2,0,0,0,6.82,28A39.35,39.35,0,0,0,472.39,411H454.94l-4.11,21.63Zm122.24,0,3.6-18.91c.82-.1,1.64-.22,2.45-.35l-3.68,19.24ZM587.05,411a70.82,70.82,0,0,0,7.37-2.74,9.22,9.22,0,0,0,1.39,2.33c.12.14.26.27.38.41Zm-361-1.63,3-1.06s1.12-4.77,2.62-11.11c.41.58.83,1.14,1.29,1.69,4.42,5.37,10.8,9.47,18.51,12.11H219.62A44.47,44.47,0,0,0,226.05,409.34Z" transform="translate(-142.61 -312.99)" style="fill:#fff"/>
    <path d="M308.86,416.81l1.2,19h.3a40,40,0,0,1,2.29-5.87l6.56-13.13h10.65l1.61,19h.3a40.36,40.36,0,0,1,2-5.62l6.4-13.4h14.46l-19.55,31.87H323l-1.07-17.33h-.46a28.45,28.45,0,0,1-1.62,4.82l-6.23,12.51H301.78l-7.33-31.85Z" transform="translate(-142.61 -312.99)" style="fill:#005daa"/>
    <path d="M353.65,416.81h13.4l-2,10.74h8.53l2-10.74H389l-6.06,31.87h-13.4l2.1-11.07h-8.56L361,448.68h-13.4Z" transform="translate(-142.61 -312.99)" style="fill:#005daa"/>
    <path d="M428.18,432.81c-1.94,10.23-12.59,16.36-24.26,16.36s-20-6.13-18-16.36c1.9-10,12.68-16.52,24.3-16.52S430.05,422.81,428.18,432.81Zm-28.34.17c-.69,3.63,1.78,6.13,6,6.13s7.63-2.5,8.32-6.13c.64-3.38-1.56-6.21-6-6.21S400.48,429.6,399.84,433Z" transform="translate(-142.61 -312.99)" style="fill:#005daa"/>
    <path d="M431.23,416.81h13.9l-4.08,21.62h11.67l-1.94,10.23H425.17Z" transform="translate(-142.61 -312.99)" style="fill:#005daa"/>
    <path d="M485.57,437.25l.62.47a13.73,13.73,0,0,0,8.12,2.91c1.37,0,3.64-.46,3.91-1.9s-1.53-1.56-2.76-1.78l-2.7-.42c-5.28-.8-9.34-3.47-8.39-8.45,1.44-7.57,10.51-11.79,18.83-11.79a23.2,23.2,0,0,1,11.59,2.78l-5.3,8.16a14,14,0,0,0-7.61-2.41c-1.22,0-3.07.38-3.32,1.7s1.47,1.35,2.5,1.56l3,.59c5.68,1.1,9.44,3.72,8.41,9.13-1.42,7.61-10.42,11.37-18.72,11.37a36,36,0,0,1-14.16-2.92Z" transform="translate(-142.61 -312.99)" style="fill:#005daa"/>
    <path d="M533.33,437.12l-.56-5.62a35,35,0,0,1-.13-4.1h-.51l-4.39,9.72Zm-12.11,11.54H506.51l19.35-31.85h15.37l7.59,31.87H534.11l-.52-4H523.05Z" transform="translate(-142.61 -312.99)" style="fill:#005daa"/>
    <path d="M553.71,416.81h13.9l-4.11,21.64h11.67l-2,10.23H547.66Z" transform="translate(-142.61 -312.99)" style="fill:#005daa"/>
    <path d="M581.87,416.81h25.72l-1.66,8.71H594.21l-.58,3h10.71l-1.58,8.29H592.05l-.59,3.13h12.12l-1.66,8.7H575.81Z" transform="translate(-142.61 -312.99)" style="fill:#005daa"/>
    <path d="M393.26,359.51l17.56-.66-14.77,48.53h31.49l14.77-48.57,17.15.66,7-23h-66.2Z" transform="translate(-142.61 -312.99)" style="fill:#e31937"/>
    <path d="M328.05,372.11c-4.41,22.76-28.53,36.4-55,36.4s-45.29-13.64-40.89-36.4c4.32-22.28,28.72-36.77,55-36.77S332.38,349.81,328.05,372.11Zm-64.2.38c-1.57,8.09,4,13.64,13.56,13.64s17.28-5.55,18.85-13.64c1.45-7.52-3.54-13.83-13.53-13.83s-17.41,6.31-18.86,13.83Z" transform="translate(-142.61 -312.99)" style="fill:#e31937"/>
    <path d="M318.28,402a83.72,83.72,0,0,0,32.07,6.49c18.73,0,39.2-8.37,42.47-25.3,2.33-12-6.19-17.87-19-20.31L367,361.58c-2.32-.47-6.16-.85-5.65-3.48.56-2.91,4.75-3.76,7.51-3.76A32,32,0,0,1,386,359.7l12-18.15c-7.69-4.23-16.38-6.21-26.27-6.21-18.84,0-39.39,9.41-42.65,26.24-2.15,11.1,7.05,17,19,18.81l6.14.94c2.78.47,6.86.75,6.24,4s-5.76,4.23-8.86,4.23c-7.24,0-13.45-2.92-18.39-6.49l-1.41-1Z" transform="translate(-142.61 -312.99)" style="fill:#e31937"/>
    <path d="M527.75,338.26a73.21,73.21,0,0,0-20.58-2.92c-25.4,0-48.48,16.55-52.49,37.24-3.91,20.23,12.37,35.93,37.07,35.93,5.63,0,17.51-.85,23-2.83l6-26.51c-5.84,4-12.07,6.58-19.31,6.58-9.43,0-16.42-6-14.91-13.82s10.37-13.83,19.8-13.83c7.12,0,12.8,3.29,17.11,7.15Z" transform="translate(-142.61 -312.99)" style="fill:#e31937"/>
    <path d="M578.16,335.34c-26.32,0-50.72,14.49-55,36.77-4.41,22.76,14.44,36.4,40.88,36.4s50.55-13.64,55-36.4C623.28,349.81,604.48,335.34,578.16,335.34Zm-4.51,23.32c10,0,15,6.31,13.53,13.83-1.57,8.09-9.31,13.64-18.84,13.64s-15.14-5.55-13.57-13.64c1.45-7.52,8.88-13.83,18.88-13.83Z" transform="translate(-142.61 -312.99)" style="fill:#e31937"/>
    <path d="M240.35,322.34a94.14,94.14,0,0,0-25.67-3.53c-31.63,0-60.47,20-65.46,45-4.88,24.44,15.41,43.43,46.23,43.43,7,0,21.85-1,28.63-3.41l7.54-32c-7.28,4.89-15.06,8-24.09,8-11.75,0-20.47-7.28-18.59-16.71s12.94-16.71,24.69-16.71c8.89,0,16,4,21.35,8.64Z" transform="translate(-142.61 -312.99)" style="fill:#e31937"/>
    <path d="M599.6,403.93c.47-2.48,3.23-4.47,6.23-4.47s5,2,4.53,4.47-3.25,4.49-6.23,4.49S599.12,406.42,599.6,403.93Zm9.36,0c.38-2-1.06-3.3-3.35-3.3s-4.23,1.3-4.61,3.3,1,3.32,3.35,3.32A4.43,4.43,0,0,0,609,403.93Zm-1.91,2.34h-1.4l-.88-2h-.91l-.37,2H602.3l.9-4.69h2.72c1.2,0,1.85.33,1.64,1.44a1.56,1.56,0,0,1-1.51,1.27Zm-1.72-2.88c.59,0,1.1,0,1.19-.5s-.43-.41-1-.41h-1.28l-.17.91Z" transform="translate(-142.61 -312.99)" style="fill:#e31937"/>
    <polygon points="8.81 135.72 156.19 135.72 156.18 135.67 156.06 135.67 154.19 127.57 8.81 127.57 8.81 135.72" style="fill:#005daa"/>
    <polygon points="8.81 124.14 153.4 124.14 151.53 115.99 8.81 115.99 8.81 124.14" style="fill:#005daa"/>
    <polygon points="8.81 112.51 150.68 112.51 150.04 109.53 148.73 103.87 8.81 103.87 8.81 112.51" style="fill:#005daa"/>
    <path d="M459.38,416.81H485.1l-1.65,8.71H471.73l-.58,3h10.7l-1.57,8.29H469.57l-.59,3.13H481.1l-1.65,8.7H453.32Z" transform="translate(-142.61 -312.99)" style="fill:#005daa"/>
  </g>
</svg>
